<?xml version="1.0" encoding="UTF-8" standalone="no"?>
<!-- Created with Inkscape (http://www.inkscape.org/) -->

<svg
   width="131.29677mm"
   height="36.780663mm"
   viewBox="0 0 131.29677 36.780663"
   version="1.1"
   id="svg894"
   inkscape:version="1.1 (c68e22c387, 2021-05-23)"
   sodipodi:docname="4pdeer_sequence_starttime.svg"
   xmlns:inkscape="http://www.inkscape.org/namespaces/inkscape"
   xmlns:sodipodi="http://sodipodi.sourceforge.net/DTD/sodipodi-0.dtd"
   xmlns="http://www.w3.org/2000/svg"
   xmlns:svg="http://www.w3.org/2000/svg">
  <sodipodi:namedview
     id="namedview896"
     pagecolor="#ffffff"
     bordercolor="#999999"
     borderopacity="1"
     inkscape:pageshadow="0"
     inkscape:pageopacity="0"
     inkscape:pagecheckerboard="0"
     inkscape:document-units="mm"
     showgrid="false"
     inkscape:snap-global="false"
     inkscape:zoom="1.4467452"
     inkscape:cx="257.8201"
     inkscape:cy="97.805748"
     inkscape:window-width="1920"
     inkscape:window-height="1001"
     inkscape:window-x="-9"
     inkscape:window-y="-9"
     inkscape:window-maximized="1"
     inkscape:current-layer="layer1" />
  <defs
     id="defs891">
    <marker
       inkscape:stockid="Arrow2Send"
       orient="auto"
       refY="0"
       refX="0"
       id="Arrow2Send-81-5-0-7-0-8-7-7-8-0-8-0-92"
       style="overflow:visible"
       inkscape:isstock="true">
      <path
         inkscape:connector-curvature="0"
         id="path852-3-5-2-65-3-2-3-1-5-8-8-7-5"
         style="fill:#000000;fill-opacity:1;fill-rule:evenodd;stroke:#000000;stroke-width:0.625;stroke-linejoin:round;stroke-opacity:1"
         d="M 8.7185878,4.0337352 -2.2072895,0.01601326 8.7185884,-4.0017078 c -1.7454984,2.3720609 -1.7354408,5.6174519 -6e-7,8.035443 z"
         transform="matrix(-0.3,0,0,-0.3,0.69,0)" />
    </marker>
  </defs>
  <g
     inkscape:label="Layer 1"
     inkscape:groupmode="layer"
     id="layer1"
     transform="translate(-53.499094,-89.568236)">
    <path
       style="fill:none;stroke:#000000;stroke-width:0.365;stroke-linecap:butt;stroke-linejoin:miter;stroke-miterlimit:4;stroke-dasharray:1.46, 0.365;stroke-dashoffset:0;stroke-opacity:1"
       d="M 86.419807,126.19027 V 90.692974"
       id="path2973" />
    <path
       style="fill:none;stroke:#000000;stroke-width:0.29652;stroke-linecap:butt;stroke-linejoin:miter;stroke-miterlimit:4;stroke-dasharray:1.18608, 0.29652;stroke-dashoffset:0;stroke-opacity:1"
       d="M 93.361145,114.12734 V 90.700244"
       id="path2973-1" />
    <path
       style="fill:none;stroke:#000000;stroke-width:0.365;stroke-linecap:butt;stroke-linejoin:miter;stroke-miterlimit:4;stroke-dasharray:1.46, 0.365;stroke-dashoffset:0;stroke-opacity:1"
       d="M 149.35891,126.16741 V 90.670122"
       id="path2973-2" />
    <rect
       style="fill:#4550e6;stroke:#000000;stroke-width:0.165;stroke-linecap:round;stroke-linejoin:round;stroke-miterlimit:3.9;stroke-dasharray:none;stroke-opacity:1"
       id="rect881-7"
       width="6.0350986"
       height="13.167488"
       x="80.521873"
       y="113.04565"
       ry="0.26846477"
       rx="0.26846477" />
    <rect
       style="fill:#7d84d8;fill-opacity:1;stroke:#000000;stroke-width:0.165;stroke-linecap:round;stroke-linejoin:round;stroke-miterlimit:3.9;stroke-dasharray:none;stroke-opacity:1"
       id="rect881-7-7"
       width="6.0350986"
       height="13.167488"
       x="113.08472"
       y="112.94296"
       ry="0.26846477"
       rx="0.26846477" />
    <rect
       style="fill:#4550e6;stroke:#000000;stroke-width:0.127885;stroke-linecap:round;stroke-linejoin:round;stroke-miterlimit:3.9;stroke-dasharray:none;stroke-opacity:1"
       id="rect881-92-2"
       width="3.6151919"
       height="13.204603"
       x="56.826488"
       y="113.0479"
       ry="0.26922148"
       rx="0.26922148" />
    <rect
       style="fill:#4550e6;stroke:#000000;stroke-width:0.165;stroke-linecap:round;stroke-linejoin:round;stroke-miterlimit:3.9;stroke-dasharray:none;stroke-opacity:1"
       id="rect881-9-0"
       width="6.0350986"
       height="13.167488"
       x="149.13031"
       y="113.04565"
       ry="0.26846477"
       rx="0.26846477" />
    <text
       xml:space="preserve"
       style="font-style:normal;font-weight:normal;font-size:7.12244px;line-height:1.25;font-family:sans-serif;fill:#000000;fill-opacity:1;stroke:none;stroke-width:0.178061"
       x="68.293945"
       y="120.60033"
       id="text2722-4"><tspan
         sodipodi:role="line"
         id="tspan2720-2"
         style="font-style:italic;font-variant:normal;font-weight:normal;font-stretch:normal;font-family:Cambria;-inkscape-font-specification:Cambria;stroke-width:0.178061"
         x="68.293945"
         y="120.60033">τ<tspan
   style="font-style:italic;font-size:65%;baseline-shift:sub"
   id="tspan9329">1</tspan></tspan></text>
    <text
       xml:space="preserve"
       style="font-style:normal;font-weight:normal;font-size:7.12244px;line-height:1.25;font-family:sans-serif;fill:#000000;fill-opacity:1;stroke:none;stroke-width:0.178061"
       x="121.41814"
       y="121.02983"
       id="text2722-4-3"><tspan
         sodipodi:role="line"
         id="tspan2720-2-8"
         style="font-style:italic;font-variant:normal;font-weight:normal;font-stretch:normal;font-family:Cambria;-inkscape-font-specification:Cambria;stroke-width:0.178061"
         x="121.41814"
         y="121.02983">τ<tspan
   style="font-style:italic;font-size:65%;baseline-shift:sub"
   id="tspan15048">1</tspan> + τ<tspan
   style="font-style:italic;font-size:65%;baseline-shift:sub"
   id="tspan14122">2</tspan> -t</tspan></text>
    <text
       xml:space="preserve"
       style="font-style:normal;font-weight:normal;font-size:7.12244px;line-height:1.25;font-family:sans-serif;fill:#000000;fill-opacity:1;stroke:none;stroke-width:0.178061"
       x="97.087852"
       y="120.7084"
       id="text2722-8-1"><tspan
         sodipodi:role="line"
         id="tspan2720-6-2"
         style="font-style:italic;font-variant:normal;font-weight:normal;font-stretch:normal;font-family:Cambria;-inkscape-font-specification:Cambria;stroke-width:0.178061"
         x="97.087852"
         y="120.7084">t</tspan></text>
    <text
       xml:space="preserve"
       style="font-style:normal;font-weight:normal;font-size:7.12244px;line-height:1.25;font-family:sans-serif;fill:#000000;fill-opacity:1;stroke:none;stroke-width:0.178061"
       x="87.301643"
       y="98.076965"
       id="text2722-8-1-4"><tspan
         sodipodi:role="line"
         id="tspan2720-6-2-8"
         style="font-style:italic;font-variant:normal;font-weight:normal;font-stretch:normal;font-family:Cambria;-inkscape-font-specification:Cambria;stroke-width:0.178061"
         x="87.301643"
         y="98.076965">t<tspan
   style="font-style:normal;font-size:65%;baseline-shift:sub"
   id="tspan1260">0</tspan></tspan></text>
    <text
       xml:space="preserve"
       style="font-style:normal;font-weight:normal;font-size:7.12244px;line-height:1.25;font-family:sans-serif;fill:#000000;fill-opacity:1;stroke:none;stroke-width:0.178061"
       x="161.01071"
       y="120.60033"
       id="text2722-0-1"><tspan
         sodipodi:role="line"
         id="tspan2720-5-9"
         style="font-style:italic;font-variant:normal;font-weight:normal;font-stretch:normal;font-family:Cambria;-inkscape-font-specification:Cambria;stroke-width:0.178061"
         x="161.01071"
         y="120.60033">τ<tspan
   style="font-style:italic;font-size:65%;baseline-shift:sub"
   id="tspan12985">2</tspan></tspan></text>
    <path
       d="m 166.89667,126.0453 c 0.0284,0 0.0591,0 0.0892,0 0.0288,0 0.0591,0 0.0898,0 0.0284,0 0.0591,0 0.0892,0 0.0288,0 0.0595,0 0.0898,0 0.0288,0 0.0591,0 0.0898,0 0.0284,0 0.0591,0 0.0892,0 0.0288,0 0.0591,0 0.0898,0 0.0303,0 0.0591,0 0.0892,0 0.0307,0 0.0591,0 0.0898,0 0.0303,0 0.059,0 0.0898,0 0.0303,0 0.059,0 0.0892,0 0.0307,0 0.0591,0 0.0898,0 0.0303,0 0.0591,0 0.0892,0 0.0307,0 0.059,0 0.0898,0 0.0303,0 0.0591,-10e-4 0.0898,-10e-4 0.0303,0 0.0591,0 0.0894,0 0.0307,0 0.0591,0 0.0898,0 0.0303,0 0.0591,0 0.0892,0 0.0307,0 0.0591,0 0.0898,0 0.0303,0 0.0591,0 0.0898,0 0.0303,-0.001 0.0591,-0.001 0.0892,-0.001 0.0307,0 0.061,0 0.0898,0 0.0303,-0.001 0.0591,-0.001 0.0892,-0.001 0.0307,0 0.061,0 0.0898,-10e-4 0.0303,0 0.061,0 0.0892,0 0.0307,-0.001 0.061,-0.001 0.0898,-0.001 0.0307,-0.001 0.061,-0.001 0.0898,-0.004 0.0303,0 0.061,0 0.0892,-10e-4 0.0307,0 0.061,-0.001 0.0898,-0.004 0.0303,0 0.061,-0.001 0.0892,-0.003 0.0307,0 0.061,-0.001 0.0898,-0.004 0.0307,-10e-4 0.061,-0.004 0.0898,-0.006 0.0303,0 0.061,-0.004 0.0892,-0.006 0.0307,-10e-4 0.061,-0.003 0.0898,-0.007 0.0303,-0.001 0.061,-0.004 0.0892,-0.009 0.0307,-0.004 0.061,-0.006 0.0917,-0.0104 0.0288,-0.004 0.0591,-0.0104 0.0898,-0.0119 0.0284,-0.006 0.0591,-0.0104 0.0893,-0.0149 0.0288,-0.006 0.059,-0.0119 0.0898,-0.0183 0.0284,-0.004 0.0591,-0.0104 0.0892,-0.0189 0.0288,-0.006 0.0591,-0.0149 0.0898,-0.0205 0.0283,-0.007 0.0591,-0.0162 0.0893,-0.0262 0.0288,-0.009 0.0595,-0.0168 0.0898,-0.0268 0.0288,-0.0104 0.0591,-0.0226 0.0898,-0.033 0.0284,-0.0119 0.0591,-0.0247 0.0892,-0.0367 0.0288,-0.0119 0.0591,-0.0268 0.0898,-0.0409 0.0284,-0.0149 0.0591,-0.0309 0.0892,-0.0473 0.0288,-0.0162 0.0595,-0.0326 0.0898,-0.0515 0.0288,-0.0183 0.0591,-0.0388 0.0898,-0.0593 0.0284,-0.0205 0.0591,-0.043 0.0892,-0.0656 0.0307,-0.0226 0.0591,-0.0473 0.0898,-0.0739 0.0303,-0.0241 0.059,-0.0509 0.0893,-0.0797 0.0307,-0.0289 0.0595,-0.0593 0.0898,-0.0903 0.0307,-0.0305 0.0591,-0.0635 0.0898,-0.0982 0.0303,-0.0351 0.059,-0.0718 0.0892,-0.11066 0.0307,-0.0367 0.059,-0.0782 0.0898,-0.11914 0.0303,-0.0409 0.059,-0.0861 0.0892,-0.13118 0.0307,-0.0451 0.059,-0.0924 0.0898,-0.14116 0.0303,-0.0494 0.0591,-0.10292 0.0898,-0.15584 0.0303,-0.0536 0.0591,-0.10858 0.0892,-0.16791 0.0307,-0.0577 0.0591,-0.11914 0.0898,-0.1805 0.0303,-0.0635 0.0591,-0.1291 0.0893,-0.19466 0.0307,-0.0677 0.0591,-0.13744 0.0898,-0.20937 0.0303,-0.0735 0.0591,-0.14739 0.0898,-0.22509 0.0303,-0.0762 0.061,-0.15585 0.0892,-0.23822 0.0307,-0.0818 0.061,-0.16581 0.0898,-0.25397 0.0303,-0.0861 0.061,-0.1763 0.0892,-0.26655 0.0307,-0.0924 0.061,-0.18627 0.0898,-0.28283 0.0303,-0.0959 0.061,-0.19676 0.0898,-0.29698 0.0303,-0.10278 0.061,-0.20516 0.0892,-0.31168 0.0307,-0.1065 0.061,-0.21513 0.0898,-0.32374 0.0303,-0.11066 0.061,-0.22354 0.0893,-0.33844 0.0307,-0.11438 0.061,-0.23141 0.0898,-0.35051 0.0303,-0.11647 0.061,-0.2377 0.0893,-0.35839 0.0307,-0.1233 0.061,-0.24608 0.0898,-0.37096 0.0307,-0.12539 0.061,-0.2503 0.0898,-0.37728 0.0303,-0.12702 0.061,-0.25605 0.0892,-0.38514 0.0307,-0.1291 0.061,-0.26024 0.0898,-0.39143 0.0303,-0.13118 0.061,-0.26236 0.0913,-0.39353 0.0288,-0.13327 0.0591,-0.26445 0.0898,-0.39564 0.0288,-0.13327 0.0591,-0.26445 0.0898,-0.39563 0.0284,-0.13326 0.0591,-0.26445 0.0892,-0.39353 0.0288,-0.13118 0.0591,-0.26026 0.0898,-0.38935 0.0284,-0.12746 0.059,-0.25447 0.0892,-0.38145 0.0288,-0.12494 0.0591,-0.25029 0.0898,-0.37098 0.0288,-0.12271 0.059,-0.24399 0.0898,-0.361 0.0284,-0.11854 0.0591,-0.2335 0.0892,-0.3484 0.0288,-0.1123 0.059,-0.223 0.0898,-0.33005 0.0284,-0.1065 0.0591,-0.21094 0.0894,-0.31116 0.0288,-0.10278 0.059,-0.19886 0.0898,-0.29331 0.0283,-0.0924 0.0591,-0.1826 0.0892,-0.26865 0.0288,-0.0861 0.0595,-0.16791 0.0898,-0.24347 0.0288,-0.0782 0.0591,-0.15007 0.0898,-0.21932 0.0303,-0.0677 0.0591,-0.13119 0.0892,-0.1889 0.0307,-0.0594 0.0591,-0.11289 0.0898,-0.16162 0.0303,-0.0473 0.0591,-0.0924 0.0892,-0.1291 0.0307,-0.0394 0.0595,-0.0718 0.0898,-0.0986 0.0307,-0.0289 0.0591,-0.0494 0.0898,-0.0656 0.0303,-0.0183 0.0591,-0.0289 0.0894,-0.0346 0.0307,-0.004 0.0591,-0.004 0.0898,0 0.0303,0.006 0.0591,0.0162 0.0892,0.0346 0.0307,0.0162 0.0595,0.0367 0.0898,0.0656 0.0307,0.0268 0.0591,0.0593 0.0898,0.0986 0.0303,0.0367 0.059,0.0818 0.0892,0.1291 0.0307,0.0488 0.0591,0.10233 0.0898,0.16162 0.0303,0.0577 0.059,0.12122 0.0892,0.1889 0.0307,0.0693 0.059,0.14115 0.0898,0.21932 0.0303,0.0756 0.061,0.15741 0.0898,0.24347 0.0303,0.0861 0.061,0.1763 0.0894,0.26865 0.0307,0.0944 0.059,0.19048 0.0898,0.29331 0.0303,0.10025 0.061,0.20464 0.0892,0.31116 0.0307,0.10709 0.061,0.21775 0.0898,0.33005 0.0303,0.11497 0.061,0.22981 0.0898,0.3484 0.0303,0.11706 0.061,0.23822 0.0892,0.361 0.0307,0.12063 0.061,0.24609 0.0898,0.37098 0.0303,0.12702 0.061,0.25396 0.0892,0.38145 0.0307,0.12911 0.061,0.25817 0.0898,0.38935 0.0303,0.12911 0.061,0.26025 0.0898,0.39353 0.0303,0.13119 0.061,0.26236 0.0893,0.39563 0.0307,0.13119 0.061,0.26236 0.0898,0.39564 0.0303,0.13119 0.061,0.26236 0.0892,0.39353 0.0307,0.13119 0.061,0.26236 0.0917,0.39143 0.0284,0.12911 0.0591,0.25817 0.0892,0.38514 0.0288,0.12703 0.0591,0.25188 0.0898,0.37728 0.0288,0.12494 0.0591,0.24766 0.0898,0.37096 0.0284,0.12063 0.0591,0.24189 0.0892,0.36048 0.0288,0.11706 0.0591,0.23403 0.0898,0.34842 0.0284,0.11497 0.0591,0.22772 0.0892,0.33844 0.0288,0.10858 0.0591,0.21723 0.0898,0.32374 0.0288,0.10649 0.059,0.20884 0.0898,0.31168 0.0284,0.10025 0.0591,0.20097 0.0892,0.29698 0.0288,0.0965 0.059,0.19048 0.0898,0.28283 0.0284,0.0903 0.0591,0.1805 0.0892,0.26655 0.0288,0.0882 0.059,0.1721 0.0898,0.25397 0.0288,0.0824 0.0591,0.16214 0.0898,0.23822 0.0284,0.0776 0.0591,0.15163 0.0893,0.22509 0.0307,0.0718 0.0591,0.1416 0.0898,0.20937 0.0284,0.0677 0.0591,0.13118 0.0892,0.19466 0.0288,0.0614 0.0591,0.12271 0.0898,0.1805 0.0303,0.0593 0.0591,0.11438 0.0892,0.16791 0.0307,0.0529 0.0595,0.10649 0.0898,0.15584 0.0307,0.0488 0.0591,0.0961 0.0898,0.14116 0.0303,0.0473 0.0591,0.0903 0.0892,0.13118 0.0307,0.0409 0.0591,0.0824 0.0898,0.11914 0.0303,0.0388 0.0591,0.0756 0.0892,0.11066 0.0307,0.0347 0.0595,0.0677 0.0898,0.0982 0.0307,0.0309 0.0591,0.0614 0.0898,0.0903 0.0303,0.0289 0.059,0.0556 0.0892,0.0797 0.0307,0.0268 0.059,0.0515 0.0898,0.0739 0.0303,0.0226 0.0591,0.0451 0.0892,0.0656 0.0307,0.0205 0.061,0.0409 0.0898,0.0593 0.0307,0.0189 0.061,0.0351 0.0898,0.0515 0.0303,0.0162 0.061,0.033 0.0892,0.0473 0.0307,0.0149 0.061,0.0289 0.0898,0.0409 0.0303,0.0119 0.061,0.0247 0.0892,0.0367 0.0307,0.0104 0.061,0.0226 0.0898,0.033 0.0303,0.0104 0.061,0.0183 0.0898,0.0288 0.0303,0.007 0.061,0.0162 0.0892,0.0241 0.0307,0.006 0.061,0.0149 0.0898,0.0205 0.0303,0.006 0.061,0.0149 0.0892,0.021 0.0307,0.003 0.061,0.0104 0.0898,0.0162 0.0303,0.004 0.061,0.007 0.0898,0.0149 0.0303,0.004 0.061,0.009 0.0892,0.0119 0.0307,0.001 0.061,0.006 0.0898,0.0104 0.0303,0.004 0.061,0.006 0.0913,0.009 0.0288,0.004 0.0591,0.006 0.0898,0.007 0.0284,0.004 0.0591,0.006 0.0892,0.006 0.0288,0.001 0.0595,0.004 0.0898,0.006 0.0288,0.001 0.0591,0.004 0.0898,0.004 0.0284,0.001 0.059,0.003 0.0892,0.003 0.0288,0.001 0.059,0.004 0.0898,0.004 0.0283,0 0.0591,10e-4 0.0893,10e-4 0.0288,0.001 0.0591,0.001 0.0898,0.004 0.0288,0 0.059,0.001 0.0898,0.001 0.0284,0 0.0591,0 0.0892,0 0.0288,10e-4 0.059,10e-4 0.0898,10e-4 0.0283,0 0.0591,0.001 0.0892,0.001 0.0288,0 0.0591,0 0.0898,0 0.0288,0 0.0591,0 0.0898,0.001 0.0284,0 0.0591,0 0.0892,0 0.0288,0 0.0591,0 0.0898,0 0.0284,0 0.0591,0 0.0893,0 0.0307,0 0.0591,0 0.0898,0 0.0303,0 0.0591,0 0.0898,0 0.0303,0 0.0591,10e-4 0.0892,10e-4 0.0307,0 0.0591,0 0.0898,0 0.0303,0 0.0591,0 0.0892,0 0.0307,0 0.0591,0 0.0898,0 0.0303,0 0.059,0 0.0892,0 0.0307,0 0.0595,0 0.0898,0 0.0307,0 0.059,0 0.0898,0 0.0303,0 0.0591,0 0.0893,0 0.0307,0 0.059,0 0.0898,0 0.0303,0 0.061,0 0.0893,0 0.0307,0 0.061,0 0.0898,0 0.0307,0 0.059,0 0.0898,0 0.0303,0 0.061,0 0.0892,0 0.0307,0 0.061,0 0.0898,0 0.0303,0 0.061,0 0.0892,0"
       style="fill:#c6c6c6;fill-opacity:1;fill-rule:nonzero;stroke:none;stroke-width:0.505982"
       id="path6699-8" />
    <path
       style="fill:none;stroke:#000000;stroke-width:0.278474px;stroke-linecap:butt;stroke-linejoin:miter;stroke-opacity:1"
       d="M 53.499094,126.20966 H 184.79586"
       id="path857-8"
       sodipodi:nodetypes="cc" />
    <path
       style="fill:none;stroke:#2d2d2d;stroke-width:0.881725;stroke-linecap:round;stroke-linejoin:round;stroke-miterlimit:4;stroke-dasharray:none;stroke-opacity:1"
       d="m 92.386978,106.07551 0.452185,0.52682 0.282328,0.2819 0.282501,0.23277 0.22596,0.1457 0.226138,0.1066 0.169431,0.053 0.169602,0.0293 0.16934,0.005 0.169517,-0.0203 0.169602,-0.0467 0.169517,-0.0742 0.169515,-0.10352 0.169601,-0.13513 0.169601,-0.16952 0.225791,-0.28538 0.225962,-0.36164 0.226138,-0.44799 0.225968,-0.54444 0.226129,-0.65006 0.282245,-0.97111 0.282665,-1.15143 0.339034,-1.6073 0.395477,-2.126317 1.0171,-5.648332 0.282497,-1.259205 0.226046,-0.806251 0.169431,-0.465068 0.169516,-0.332886 0.112979,-0.144393 0.112982,-0.08043 0.05538,-0.0159 0.05537,3.03e-4 0.0554,0.01658 0.11298,0.08169 0.1129,0.145608 0.11299,0.207955 0.16952,0.423765 0.16942,0.548754 0.22596,0.903554 0.28251,1.35337 0.39564,2.16628 0.8475,4.752903 0.33903,1.6437 0.28259,1.18564 0.28224,1.00577 0.28266,0.82859 0.22604,0.54348 0.22605,0.44711 0.22589,0.36086 0.22596,0.28469 0.22604,0.21763 0.16953,0.1239 0.16968,0.0932 0.16952,0.0644 0.16943,0.0374 0.16935,0.0116 0.16969,-0.0134 0.16943,-0.0377 0.1695,-0.0611 0.1696,-0.084 0.22588,-0.14606 0.22606,-0.18235 0.28259,-0.27316 0.33902,-0.38096 0.5649,-0.70676 0.56511,-0.69645 0.33901,-0.3673 0.2825,-0.26046 0.2825,-0.2114 0.22613,-0.13118 0.22589,-0.0969 0.22587,-0.0633 0.22614,-0.0316 0.22596,-0.002 0.22614,0.0238 0.22613,0.046 0.28225,0.0827 0.33911,0.12604 0.62153,0.26662 0.62154,0.25792 0.39564,0.13823 0.33877,0.0959 0.33913,0.0725 0.33911,0.0487 0.33886,0.0255 0.33911,0.004 0.39557,-0.0177 0.45186,-0.0434 0.67814,-0.09 0.90402,-0.11641 0.50863,-0.0423 0.45186,-0.017 0.45217,0.004 0.50838,0.0275 0.56517,0.0528 1.24306,0.14807 0.67788,0.0661 0.56525,0.0339 0.56492,0.0107 0.56507,-0.0128 0.62155,-0.037 0.79086,-0.0702 1.69516,-0.1578 0.73451,-0.0428 0.67815,-0.0182 0.73452,0.002 0.84749,0.026 1.35604,0.0673 1.46927,0.0662 1.07355,0.026 1.12999,0.004 1.46911,-0.0184 3.4466,-0.0507 2.14726,-0.003 7.11904,0.0181 v 0"
       id="path100955-9-9-2-0-7" />
    <path
       style="fill:none;stroke:#989898;stroke-width:0.881725;stroke-linecap:round;stroke-linejoin:round;stroke-miterlimit:4;stroke-dasharray:none;stroke-opacity:1"
       d="m 92.865557,106.72473 -0.339023,-0.38096 -0.564906,-0.70676 -0.565103,-0.69646 -0.339012,-0.3673 -0.282499,-0.26045 -0.282503,-0.2114 -0.226129,-0.13118 -0.225884,-0.0969 -0.225874,-0.0633 -0.226139,-0.0316 -0.225963,-0.002 -0.226139,0.0238 -0.22613,0.046 -0.282246,0.0827 -0.339111,0.12604 -0.621534,0.26662 -0.621535,0.25792"
       id="path100955-9-9-2-0-1"
       sodipodi:nodetypes="cccccccccccccccccc" />
  </g>
</svg>
